<svg width="32" height="32" xmlns="http://www.w3.org/2000/svg" version="1.1">

 <g>
  <title>Layer 1</title>
  <rect stroke-width="0" rx="5" id="svg_7" height="31.80428" width="31.80428" y="0.02141" x="-0.05504" stroke="#000" fill="#fff"/>
  <g id="surface1">
   <path id="svg_1" fill="rgb(100%,100%,100%)" fill-rule="nonzero" d="m3.50586,-3.182l24.1875,0l0,30.71875l-24.1875,0l0,-30.71875zm0,0"/>
   <path id="svg_2" fill="rgb(13.333333%,13.333333%,13.333333%)" fill-rule="nonzero" d="m6.55664,16.67738c-0.05469,0.41797 -0.08594,0.76562 -0.08594,1.04297c0,0.73828 0.26172,1.37109 0.78516,1.89453c0.52734,0.51953 1.16406,0.78125 1.91406,0.78125c0.60157,0 1.17969,-0.125 1.73047,-0.3711c0.55469,-0.24609 1.37891,-0.78906 2.47266,-1.6289l0.25781,0.35937c-1.97266,1.95703 -3.85547,2.9375 -5.64844,2.9375c-1.21875,0 -2.13281,-0.38281 -2.75,-1.14843c-0.61718,-0.76563 -0.92578,-1.61329 -0.92578,-2.53907c0,-1.24218 0.38281,-2.51172 1.14844,-3.8125c0.76953,-1.29687 1.73047,-2.30859 2.88672,-3.02734c1.16015,-0.72656 2.35156,-1.08594 3.57812,-1.08594c0.88672,0 1.53907,0.17969 1.96094,0.53906c0.42578,0.35547 0.64063,0.78125 0.64063,1.27735c0,0.6875 -0.27344,1.35156 -0.82422,1.98437c-0.72657,0.82422 -1.79297,1.49219 -3.19922,2c-0.9336,0.34375 -2.2461,0.60938 -3.94141,0.79688zm0.08985,-0.60938c1.23437,-0.14062 2.23828,-0.38281 3.01171,-0.72265c1.02344,-0.46094 1.79297,-1.00782 2.30469,-1.64453c0.51172,-0.63672 0.76953,-1.2461 0.76953,-1.82032c0,-0.35156 -0.10937,-0.63281 -0.33203,-0.85156c-0.21875,-0.21484 -0.53515,-0.32422 -0.94531,-0.32422c-0.84766,0 -1.75,0.45313 -2.70313,1.35938c-0.95312,0.90234 -1.65625,2.23828 -2.10546,4.0039zm21.84765,-5.6875l-0.51172,1.76563l-2.98828,0l-1.46094,4.95703c-0.26562,0.91797 -0.39843,1.59766 -0.39843,2.04297c0,0.32031 0.10156,0.58984 0.30468,0.80469c0.20313,0.21093 0.47266,0.32031 0.80469,0.32031c0.71094,0 1.27735,-0.55078 1.69922,-1.65235l0.49219,0c-0.5625,2.05079 -1.56641,3.07422 -3.01563,3.07422c-0.60547,0 -1.09765,-0.17578 -1.47265,-0.53515c-0.36719,-0.35938 -0.55469,-0.86719 -0.55469,-1.52735c0,-0.51953 0.125,-1.23828 0.36719,-2.16015l0.30859,-1.19141c0.02734,-0.11719 0.06641,-0.25781 0.11719,-0.42578l1.17187,-3.70703l-2.53906,0l-1.32422,4.55859c-0.60547,2.09375 -1.08984,3.44922 -1.44531,4.06641c-0.35156,0.61328 -0.81641,0.92187 -1.39063,0.92187c-0.29296,0 -0.5625,-0.08984 -0.80468,-0.26953c-0.23828,-0.17969 -0.35938,-0.41797 -0.35938,-0.71875c0,-0.40234 0.30469,-0.95312 0.91406,-1.66015c1.50782,-1.76563 2.62891,-4.06641 3.35938,-6.89844l-0.91016,0c-1.42968,0 -2.35547,0.4414 -2.77343,1.32422l-0.47657,0c0.75782,-2.0625 2.08985,-3.08985 4,-3.08985l8.88672,0zm0,0"/>
  </g>
  <rect rx="44" id="svg_3" height="23.5474" width="20.33639" y="6.90214" x="-27.57797" stroke="#000" fill="#fff"/>
  <rect id="svg_4" height="13.76147" width="25.38226" y="-27.65443" x="-29.41284" stroke="#000" fill="#fff"/>
  <rect id="svg_6" height="10.24465" width="7.18654" y="-5.17737" x="32.81957" stroke="#000" fill="#fff"/>
 </g>
</svg>