<?xml version="1.0" encoding="UTF-8"?>
<svg xmlns="http://www.w3.org/2000/svg" xmlns:xlink="http://www.w3.org/1999/xlink" width="32pt" height="32pt" viewBox="0 0 32 32" version="1.1">
<g id="surface1">
<path style=" stroke:none;fill-rule:nonzero;fill:rgb(100%,100%,100%);fill-opacity:1;" d="M 3.90625 0.382812 L 28.09375 0.382812 L 28.09375 31.101562 L 3.90625 31.101562 Z M 3.90625 0.382812 "/>
<path style=" stroke:none;fill-rule:nonzero;fill:rgb(13.333333%,13.333333%,13.333333%);fill-opacity:1;" d="M 6.957031 20.242188 C 6.902344 20.660156 6.871094 21.007812 6.871094 21.285156 C 6.871094 22.023438 7.132812 22.65625 7.65625 23.179688 C 8.183594 23.699219 8.820312 23.960938 9.570312 23.960938 C 10.171875 23.960938 10.75 23.835938 11.300781 23.589844 C 11.855469 23.34375 12.679688 22.800781 13.773438 21.960938 L 14.03125 22.320312 C 12.058594 24.277344 10.175781 25.257812 8.382812 25.257812 C 7.164062 25.257812 6.25 24.875 5.632812 24.109375 C 5.015625 23.34375 4.707031 22.496094 4.707031 21.570312 C 4.707031 20.328125 5.089844 19.058594 5.855469 17.757812 C 6.625 16.460938 7.585938 15.449219 8.742188 14.730469 C 9.902344 14.003906 11.09375 13.644531 12.320312 13.644531 C 13.207031 13.644531 13.859375 13.824219 14.28125 14.183594 C 14.707031 14.539062 14.921875 14.964844 14.921875 15.460938 C 14.921875 16.148438 14.648438 16.8125 14.097656 17.445312 C 13.371094 18.269531 12.304688 18.9375 10.898438 19.445312 C 9.964844 19.789062 8.652344 20.054688 6.957031 20.242188 Z M 7.046875 19.632812 C 8.28125 19.492188 9.285156 19.25 10.058594 18.910156 C 11.082031 18.449219 11.851562 17.902344 12.363281 17.265625 C 12.875 16.628906 13.132812 16.019531 13.132812 15.445312 C 13.132812 15.09375 13.023438 14.8125 12.800781 14.59375 C 12.582031 14.378906 12.265625 14.269531 11.855469 14.269531 C 11.007812 14.269531 10.105469 14.722656 9.152344 15.628906 C 8.199219 16.53125 7.496094 17.867188 7.046875 19.632812 Z M 28.894531 13.945312 L 28.382812 15.710938 L 25.394531 15.710938 L 23.933594 20.667969 C 23.667969 21.585938 23.535156 22.265625 23.535156 22.710938 C 23.535156 23.03125 23.636719 23.300781 23.839844 23.515625 C 24.042969 23.726562 24.3125 23.835938 24.644531 23.835938 C 25.355469 23.835938 25.921875 23.285156 26.34375 22.183594 L 26.835938 22.183594 C 26.273438 24.234375 25.269531 25.257812 23.820312 25.257812 C 23.214844 25.257812 22.722656 25.082031 22.347656 24.722656 C 21.980469 24.363281 21.792969 23.855469 21.792969 23.195312 C 21.792969 22.675781 21.917969 21.957031 22.160156 21.035156 L 22.46875 19.84375 C 22.496094 19.726562 22.535156 19.585938 22.585938 19.417969 L 23.757812 15.710938 L 21.21875 15.710938 L 19.894531 20.269531 C 19.289062 22.363281 18.804688 23.71875 18.449219 24.335938 C 18.097656 24.949219 17.632812 25.257812 17.058594 25.257812 C 16.765625 25.257812 16.496094 25.167969 16.253906 24.988281 C 16.015625 24.808594 15.894531 24.570312 15.894531 24.269531 C 15.894531 23.867188 16.199219 23.316406 16.808594 22.609375 C 18.316406 20.84375 19.4375 18.542969 20.167969 15.710938 L 19.257812 15.710938 C 17.828125 15.710938 16.902344 16.152344 16.484375 17.035156 L 16.007812 17.035156 C 16.765625 14.972656 18.097656 13.945312 20.007812 13.945312 Z M 28.894531 13.945312 "/>
</g>
</svg>
